<svg width="20" height="26" viewBox="0 0 20 26" fill="none" xmlns="http://www.w3.org/2000/svg">
<path d="M10 2.6C12.06 2.6 13.75 4.3576 13.75 6.5V10.4H6.25V6.5C6.25 4.3576 7.94 2.6 10 2.6ZM16.25 10.4V6.5C16.25 2.9224 13.44 0 10 0C6.56 0 3.75 2.9224 3.75 6.5V10.4H2.5C1.83696 10.4 1.20107 10.6739 0.732233 11.1615C0.263392 11.6491 0 12.3104 0 13V23.4C0 24.0896 0.263392 24.7509 0.732233 25.2385C1.20107 25.7261 1.83696 26 2.5 26H17.5C18.163 26 18.7989 25.7261 19.2678 25.2385C19.7366 24.7509 20 24.0896 20 23.4V13C20 12.3104 19.7366 11.6491 19.2678 11.1615C18.7989 10.6739 18.163 10.4 17.5 10.4H16.25ZM2.5 13H17.5V23.4H2.5V13Z" fill="#0D0D0D"/>
</svg>
