<svg width="375" height="32" viewBox="0 0 375 32" fill="none" xmlns="http://www.w3.org/2000/svg">
<path d="M12.1649 24.128C8.17555 24.128 5.22088 22.9973 3.30088 20.736C2.61821 19.9253 2.06355 18.848 1.63688 17.504C1.21021 16.16 0.996881 14.528 0.996881 12.608C0.996881 10.688 1.30621 8.97067 1.92488 7.456C2.56488 5.92 3.42888 4.736 4.51688 3.904C6.62888 2.34667 9.17821 1.568 12.1649 1.568C13.0182 1.568 13.8502 1.64267 14.6609 1.792C15.4715 1.92 16.0795 2.05867 16.4849 2.208L17.0609 2.432L16.9649 2.752C15.5142 2.176 13.9142 1.888 12.1649 1.888C9.90355 1.888 8.01555 2.624 6.50088 4.096C5.34888 5.184 4.53821 6.784 4.06888 8.896C3.79155 10.0907 3.65288 11.552 3.65288 13.28C3.65288 15.008 3.89821 16.608 4.38888 18.08C4.87955 19.5307 5.43421 20.608 6.05288 21.312C6.69288 22.016 7.46088 22.5813 8.35688 23.008C9.25288 23.4133 9.96755 23.648 10.5009 23.712C11.0342 23.776 11.6742 23.808 12.4209 23.808C13.1889 23.808 14.0529 23.7333 15.0129 23.584C15.9729 23.4347 16.6982 23.296 17.1889 23.168L17.9249 22.944L18.0209 23.264C16.3995 23.84 14.4475 24.128 12.1649 24.128ZM36.0429 24C34.5922 24 33.6002 23.7227 33.0669 23.168C32.5762 22.6987 32.3309 22.2933 32.3309 21.952V21.28C31.2855 23.1787 29.6109 24.128 27.3069 24.128C24.6189 24.128 23.0935 22.912 22.7309 20.48C22.6882 20.224 22.6669 19.968 22.6669 19.712C22.6669 19.4347 22.7095 19.136 22.7949 18.816C22.8802 18.496 23.1255 18.144 23.5309 17.76C24.3415 16.992 26.1229 16.5227 28.8749 16.352C29.5575 16.288 30.1869 16.256 30.7629 16.256C31.3389 16.256 31.8616 16.2773 32.3309 16.32V11.008C32.2882 10.9867 32.2882 10.8907 32.3309 10.72C32.3735 10.528 32.3309 10.2933 32.2029 10.016C32.0962 9.71733 31.9469 9.42933 31.7549 9.152C31.5629 8.87467 31.2215 8.64 30.7309 8.448C30.2402 8.23467 29.6002 8.128 28.8109 8.128C28.0215 8.128 27.0935 8.27733 26.0269 8.576C24.9815 8.85333 24.2135 9.13067 23.7229 9.408L23.5949 9.184C25.4935 8.30933 27.4242 7.872 29.3869 7.872C31.5842 7.872 33.0349 8.26667 33.7389 9.056C34.2935 9.67467 34.5709 10.3253 34.5709 11.008V21.728C34.5709 22.3467 34.6882 22.8267 34.9229 23.168C35.1789 23.488 35.4349 23.6587 35.6909 23.68L36.0429 23.744H37.0349V24H36.0429ZM27.8189 23.872C28.9495 23.872 29.9629 23.488 30.8589 22.72C31.7762 21.9307 32.2669 21.1733 32.3309 20.448V16.576C31.7549 16.5333 31.1682 16.512 30.5709 16.512C29.9949 16.512 29.4189 16.544 28.8429 16.608C27.2215 16.8 26.1655 17.1627 25.6749 17.696C25.1842 18.2293 24.9389 18.9653 24.9389 19.904C24.9389 20.0747 24.9495 20.2667 24.9709 20.48C25.1629 22.7413 26.1122 23.872 27.8189 23.872ZM45.8846 24C44.0073 24 42.8233 23.5093 42.3326 22.528C42.226 22.3147 42.1726 22.1227 42.1726 21.952V0.0319996H44.4126V21.728C44.4126 22.3467 44.53 22.8267 44.7646 23.168C45.0206 23.488 45.2766 23.6587 45.5326 23.68L45.8846 23.744H46.8766V24H45.8846ZM57.5836 8.128C56.069 8.128 54.7996 8.85333 53.7756 10.304C52.773 11.7547 52.2716 13.76 52.2716 16.32C52.2716 18.88 52.7303 20.7787 53.6476 22.016C54.5863 23.2533 55.813 23.872 57.3276 23.872C59.2263 23.872 60.9116 23.552 62.3836 22.912L62.4796 23.136C60.965 23.7973 59.1943 24.128 57.1676 24.128C55.141 24.128 53.4556 23.488 52.1116 22.208C50.7676 20.928 50.0956 18.9547 50.0956 16.288C50.0956 13.6213 50.7996 11.552 52.2076 10.08C53.6156 8.608 55.4076 7.872 57.5836 7.872C58.7996 7.872 59.9196 8.14933 60.9436 8.704C61.989 9.25867 62.757 10.1013 63.2476 11.232H61.1996C60.8796 10.1867 60.389 9.408 59.7276 8.896C59.0876 8.384 58.373 8.128 57.5836 8.128ZM70.1419 20.32C70.1419 22.0053 70.5899 23.0827 71.4859 23.552C71.9125 23.7653 72.4565 23.872 73.1179 23.872C74.4619 23.872 75.6565 23.36 76.7019 22.336C77.7685 21.312 78.3445 20.3627 78.4299 19.488V8H80.6699V21.728C80.6699 22.3467 80.7872 22.8267 81.0219 23.168C81.2779 23.488 81.5339 23.6587 81.7899 23.68L82.1419 23.744H83.1339V24H81.1819C80.3072 24 79.6352 23.808 79.1659 23.424C78.7179 23.04 78.4832 22.656 78.4619 22.272L78.4299 21.728V20.352C78.0459 21.2693 77.3632 22.1333 76.3819 22.944C75.4005 23.7333 74.3232 24.128 73.1499 24.128C71.9979 24.128 71.0485 24.0213 70.3019 23.808C69.5765 23.5733 69.0539 23.2533 68.7339 22.848C68.1792 22.1867 67.9019 21.3333 67.9019 20.288V8H70.1419V20.32ZM91.2096 24C89.3323 24 88.1483 23.5093 87.6576 22.528C87.551 22.3147 87.4976 22.1227 87.4976 21.952V0.0319996H89.7376V21.728C89.7376 22.3467 89.855 22.8267 90.0896 23.168C90.3456 23.488 90.6016 23.6587 90.8576 23.68L91.2096 23.744H92.2016V24H91.2096ZM109.605 24C108.155 24 107.163 23.7227 106.629 23.168C106.139 22.6987 105.893 22.2933 105.893 21.952V21.28C104.848 23.1787 103.173 24.128 100.869 24.128C98.1814 24.128 96.656 22.912 96.2934 20.48C96.2507 20.224 96.2294 19.968 96.2294 19.712C96.2294 19.4347 96.272 19.136 96.3574 18.816C96.4427 18.496 96.688 18.144 97.0934 17.76C97.904 16.992 99.6854 16.5227 102.437 16.352C103.12 16.288 103.749 16.256 104.325 16.256C104.901 16.256 105.424 16.2773 105.893 16.32V11.008C105.851 10.9867 105.851 10.8907 105.893 10.72C105.936 10.528 105.893 10.2933 105.765 10.016C105.659 9.71733 105.509 9.42933 105.317 9.152C105.125 8.87467 104.784 8.64 104.293 8.448C103.803 8.23467 103.163 8.128 102.373 8.128C101.584 8.128 100.656 8.27733 99.5894 8.576C98.544 8.85333 97.776 9.13067 97.2854 9.408L97.1574 9.184C99.056 8.30933 100.987 7.872 102.949 7.872C105.147 7.872 106.597 8.26667 107.301 9.056C107.856 9.67467 108.133 10.3253 108.133 11.008V21.728C108.133 22.3467 108.251 22.8267 108.485 23.168C108.741 23.488 108.997 23.6587 109.253 23.68L109.605 23.744H110.597V24H109.605ZM101.381 23.872C102.512 23.872 103.525 23.488 104.421 22.72C105.339 21.9307 105.829 21.1733 105.893 20.448V16.576C105.317 16.5333 104.731 16.512 104.133 16.512C103.557 16.512 102.981 16.544 102.405 16.608C100.784 16.8 99.728 17.1627 99.2374 17.696C98.7467 18.2293 98.5014 18.9653 98.5014 19.904C98.5014 20.0747 98.512 20.2667 98.5334 20.48C98.7254 22.7413 99.6747 23.872 101.381 23.872ZM115.223 8.256V8H115.895V4.8H118.135V8H123.031V8.256H118.135V19.904C118.135 21.2907 118.284 22.2933 118.583 22.912C118.903 23.5307 119.554 23.84 120.535 23.84C121.538 23.84 122.551 23.6373 123.575 23.232L123.671 23.488C122.604 23.8933 121.378 24.096 119.991 24.096C118.626 24.096 117.602 23.8187 116.919 23.264C116.236 22.688 115.895 21.5573 115.895 19.872V8.256H115.223ZM129.678 16.192C129.678 18.8373 130.137 20.7787 131.054 22.016C131.993 23.2533 133.219 23.872 134.734 23.872C136.867 23.872 138.766 23.552 140.43 22.912L140.526 23.136C138.819 23.7973 136.889 24.128 134.734 24.128C132.601 24.128 130.862 23.488 129.518 22.208C128.174 20.928 127.502 18.9547 127.502 16.288C127.502 13.6213 128.206 11.552 129.614 10.08C131.022 8.608 132.814 7.872 134.99 7.872C136.739 7.872 138.211 8.39467 139.406 9.44C140.601 10.4853 141.198 12.032 141.198 14.08C141.198 14.1867 141.198 14.2933 141.198 14.4H129.774C129.71 14.976 129.678 15.5733 129.678 16.192ZM139.022 14.144C139.001 12.096 138.606 10.5813 137.838 9.6C137.07 8.61867 136.078 8.128 134.862 8.128C133.646 8.128 132.558 8.66133 131.598 9.728C130.659 10.7947 130.062 12.2667 129.806 14.144H139.022ZM148.111 20.32C148.111 22.0053 148.559 23.0827 149.455 23.552C149.881 23.7653 150.425 23.872 151.087 23.872C152.431 23.872 153.625 23.36 154.671 22.336C155.737 21.312 156.313 20.3627 156.399 19.488V8H158.639V21.728C158.639 22.3467 158.756 22.8267 158.991 23.168C159.247 23.488 159.503 23.6587 159.759 23.68L160.111 23.744H161.103V24H159.151C158.276 24 157.604 23.808 157.135 23.424C156.687 23.04 156.452 22.656 156.431 22.272L156.399 21.728V20.352C156.015 21.2693 155.332 22.1333 154.351 22.944C153.369 23.7333 152.292 24.128 151.119 24.128C149.967 24.128 149.017 24.0213 148.271 23.808C147.545 23.5733 147.023 23.2533 146.703 22.848C146.148 22.1867 145.871 21.3333 145.871 20.288V8H148.111V20.32ZM171.226 9.376V8.704C170.266 9.088 169.392 9.86667 168.602 11.04C167.813 12.192 167.397 13.28 167.354 14.304V24H165.114V8H167.354V13.088C167.696 11.8507 168.346 10.688 169.306 9.6C170.266 8.49067 171.354 7.91467 172.57 7.872H172.698C173.125 7.872 173.477 8.02133 173.754 8.32C174.053 8.59733 174.202 8.94933 174.202 9.376C174.202 9.80267 174.053 10.1547 173.754 10.432C173.477 10.7093 173.125 10.848 172.698 10.848C172.272 10.848 171.92 10.7093 171.642 10.432C171.365 10.1547 171.226 9.80267 171.226 9.376ZM190.977 16.576C190.977 13.8027 191.649 11.6587 192.993 10.144C194.337 8.62933 196.353 7.872 199.041 7.872C200.3 7.872 201.569 8.192 202.849 8.832V0.0319996H205.089V21.728C205.089 22.3467 205.206 22.8267 205.441 23.168C205.697 23.488 205.953 23.6587 206.209 23.68L206.561 23.744H207.553V24H205.601C204.726 24 204.054 23.808 203.585 23.424C203.137 23.04 202.902 22.656 202.881 22.272L202.849 21.728V21.216C202.444 21.9627 201.772 22.624 200.833 23.2C199.894 23.776 198.785 24.064 197.505 24.064C193.153 23.9573 190.977 21.4613 190.977 16.576ZM197.537 23.808C198.966 23.808 200.193 23.424 201.217 22.656C202.241 21.888 202.785 21.1307 202.849 20.384V9.12C201.334 8.45867 200.033 8.128 198.945 8.128C197.046 8.128 195.617 8.87467 194.657 10.368C193.697 11.84 193.217 13.9093 193.217 16.576C193.217 21.3973 194.657 23.808 197.537 23.808ZM213.084 16.192C213.084 18.8373 213.543 20.7787 214.46 22.016C215.399 23.2533 216.625 23.872 218.14 23.872C220.273 23.872 222.172 23.552 223.836 22.912L223.932 23.136C222.225 23.7973 220.295 24.128 218.14 24.128C216.007 24.128 214.268 23.488 212.924 22.208C211.58 20.928 210.908 18.9547 210.908 16.288C210.908 13.6213 211.612 11.552 213.02 10.08C214.428 8.608 216.22 7.872 218.396 7.872C220.145 7.872 221.617 8.39467 222.812 9.44C224.007 10.4853 224.604 12.032 224.604 14.08C224.604 14.1867 224.604 14.2933 224.604 14.4H213.18C213.116 14.976 213.084 15.5733 213.084 16.192ZM222.428 14.144C222.407 12.096 222.012 10.5813 221.244 9.6C220.476 8.61867 219.484 8.128 218.268 8.128C217.052 8.128 215.964 8.66133 215.004 9.728C214.065 10.7947 213.468 12.2667 213.212 14.144H222.428ZM260.535 11.68C260.535 10.3787 260.365 9.46133 260.023 8.928C259.682 8.39467 259.031 8.128 258.071 8.128C256.791 8.128 255.65 8.66133 254.647 9.728C253.666 10.7947 253.175 11.7547 253.175 12.608V24H250.935V11.68C250.935 10.3787 250.765 9.46133 250.423 8.928C250.082 8.39467 249.357 8.128 248.247 8.128C247.138 8.128 246.082 8.64 245.079 9.664C244.098 10.688 243.565 11.6373 243.479 12.512V24H241.239V8H243.479V11.616C243.821 10.6987 244.45 9.84533 245.367 9.056C246.285 8.26667 247.309 7.872 248.439 7.872C249.57 7.872 250.466 7.97867 251.127 8.192C251.81 8.384 252.29 8.69333 252.567 9.12C252.845 9.54667 253.015 9.92 253.079 10.24C253.143 10.56 253.175 11.008 253.175 11.584C253.517 10.6667 254.135 9.824 255.031 9.056C255.927 8.26667 256.887 7.872 257.911 7.872C258.935 7.872 259.757 7.95733 260.375 8.128C260.994 8.29867 261.453 8.49067 261.751 8.704C262.071 8.91733 262.306 9.22667 262.455 9.632C262.626 10.0373 262.722 10.368 262.743 10.624C262.765 10.88 262.775 11.2427 262.775 11.712V21.728C262.775 22.3467 262.893 22.8267 263.127 23.168C263.383 23.488 263.639 23.6587 263.895 23.68L264.247 23.744H265.239V24H263.287C262.413 24 261.741 23.808 261.271 23.424C260.823 23.04 260.589 22.656 260.567 22.272L260.535 21.728V11.68ZM275.848 24.128C273.608 24.128 271.784 23.488 270.376 22.208C268.968 20.928 268.264 18.9547 268.264 16.288C268.264 13.6213 268.99 11.552 270.44 10.08C271.912 8.608 273.768 7.872 276.008 7.872C278.27 7.872 280.104 8.512 281.512 9.792C282.92 11.072 283.624 13.0453 283.624 15.712C283.624 18.3787 282.888 20.448 281.416 21.92C279.966 23.392 278.11 24.128 275.848 24.128ZM276.072 8.128C274.451 8.128 273.107 8.85333 272.04 10.304C270.974 11.7333 270.44 13.7387 270.44 16.32C270.44 18.88 270.931 20.7787 271.912 22.016C272.894 23.2533 274.195 23.872 275.816 23.872C277.438 23.872 278.782 23.1573 279.848 21.728C280.915 20.2773 281.448 18.272 281.448 15.712C281.448 13.1307 280.958 11.2213 279.976 9.984C278.995 8.74667 277.694 8.128 276.072 8.128ZM291.538 29.728C290.855 31.2427 290.013 32 289.01 32C288.562 32 288.039 31.9253 287.442 31.776V31.52C287.933 31.648 288.37 31.712 288.754 31.712C289.842 31.712 290.674 31.0507 291.25 29.728L293.938 24H293.906L287.954 8H290.194L295.154 21.344L300.05 11.2C300.306 10.752 300.434 10.2187 300.434 9.6C300.434 8.98133 300.263 8.512 299.922 8.192L300.114 8C300.199 8.04267 300.306 8.17067 300.434 8.384C300.583 8.59733 300.669 8.78933 300.69 8.96C300.733 9.13067 300.754 9.29067 300.754 9.44C300.754 10.016 300.626 10.6027 300.37 11.2L294.226 24L291.538 29.728ZM307.115 16.192C307.115 18.8373 307.574 20.7787 308.491 22.016C309.43 23.2533 310.657 23.872 312.171 23.872C314.305 23.872 316.203 23.552 317.867 22.912L317.963 23.136C316.257 23.7973 314.326 24.128 312.171 24.128C310.038 24.128 308.299 23.488 306.955 22.208C305.611 20.928 304.939 18.9547 304.939 16.288C304.939 13.6213 305.643 11.552 307.051 10.08C308.459 8.608 310.251 7.872 312.427 7.872C314.177 7.872 315.649 8.39467 316.843 9.44C318.038 10.4853 318.635 12.032 318.635 14.08C318.635 14.1867 318.635 14.2933 318.635 14.4H307.211C307.147 14.976 307.115 15.5733 307.115 16.192ZM316.459 14.144C316.438 12.096 316.043 10.5813 315.275 9.6C314.507 8.61867 313.515 8.128 312.299 8.128C311.083 8.128 309.995 8.66133 309.035 9.728C308.097 10.7947 307.499 12.2667 307.243 14.144H316.459ZM335.619 24C334.745 24 334.073 23.808 333.603 23.424C333.155 23.04 332.921 22.656 332.899 22.272L332.867 21.728V11.68C332.867 9.99467 332.43 8.91733 331.555 8.448C331.107 8.23467 330.553 8.128 329.891 8.128C328.526 8.128 327.299 8.672 326.211 9.76C325.123 10.8267 324.579 11.7867 324.579 12.64V24H322.339V8H324.579V11.648C324.942 10.7307 325.614 9.87733 326.595 9.088C327.577 8.27733 328.654 7.872 329.827 7.872C331.001 7.872 331.95 7.98933 332.675 8.224C333.422 8.43733 333.966 8.74667 334.307 9.152C334.841 9.81333 335.107 10.6667 335.107 11.712V21.728C335.107 22.3467 335.225 22.8267 335.459 23.168C335.715 23.488 335.971 23.6587 336.227 23.68L336.579 23.744H337.571V24H335.619ZM354.863 24C353.988 24 353.316 23.808 352.847 23.424C352.399 23.04 352.164 22.656 352.143 22.272L352.111 21.728V11.68C352.111 9.99467 351.674 8.91733 350.799 8.448C350.351 8.23467 349.796 8.128 349.135 8.128C347.77 8.128 346.543 8.672 345.455 9.76C344.367 10.8267 343.823 11.7867 343.823 12.64V24H341.583V8H343.823V11.648C344.186 10.7307 344.858 9.87733 345.839 9.088C346.82 8.27733 347.898 7.872 349.071 7.872C350.244 7.872 351.194 7.98933 351.919 8.224C352.666 8.43733 353.21 8.74667 353.551 9.152C354.084 9.81333 354.351 10.6667 354.351 11.712V21.728C354.351 22.3467 354.468 22.8267 354.703 23.168C354.959 23.488 355.215 23.6587 355.471 23.68L355.823 23.744H356.815V24H354.863ZM362.69 16.192C362.69 18.8373 363.149 20.7787 364.066 22.016C365.005 23.2533 366.232 23.872 367.746 23.872C369.88 23.872 371.778 23.552 373.442 22.912L373.538 23.136C371.832 23.7973 369.901 24.128 367.746 24.128C365.613 24.128 363.874 23.488 362.53 22.208C361.186 20.928 360.514 18.9547 360.514 16.288C360.514 13.6213 361.218 11.552 362.626 10.08C364.034 8.608 365.826 7.872 368.002 7.872C369.752 7.872 371.224 8.39467 372.418 9.44C373.613 10.4853 374.21 12.032 374.21 14.08C374.21 14.1867 374.21 14.2933 374.21 14.4H362.786C362.722 14.976 362.69 15.5733 362.69 16.192ZM372.034 14.144C372.013 12.096 371.618 10.5813 370.85 9.6C370.082 8.61867 369.09 8.128 367.874 8.128C366.658 8.128 365.57 8.66133 364.61 9.728C363.672 10.7947 363.074 12.2667 362.818 14.144H372.034Z" fill="black"/>
</svg>
