<svg width="25" height="29" viewBox="0 0 25 29" fill="none" xmlns="http://www.w3.org/2000/svg">
<path d="M12.5 2.9C11.0266 2.9 9.6135 3.51107 8.57163 4.59878C7.52976 5.68649 6.94444 7.16174 6.94444 8.7C6.94444 10.2383 7.52976 11.7135 8.57163 12.8012C9.6135 13.8889 11.0266 14.5 12.5 14.5C13.9734 14.5 15.3865 13.8889 16.4284 12.8012C17.4702 11.7135 18.0556 10.2383 18.0556 8.7C18.0556 7.16174 17.4702 5.68649 16.4284 4.59878C15.3865 3.51107 13.9734 2.9 12.5 2.9ZM4.16667 8.7C4.16667 6.39262 5.04464 4.17974 6.60744 2.54817C8.17025 0.916604 10.2899 0 12.5 0C14.7101 0 16.8298 0.916604 18.3926 2.54817C19.9554 4.17974 20.8333 6.39262 20.8333 8.7C20.8333 11.0074 19.9554 13.2203 18.3926 14.8518C16.8298 16.4834 14.7101 17.4 12.5 17.4C10.2899 17.4 8.17025 16.4834 6.60744 14.8518C5.04464 13.2203 4.16667 11.0074 4.16667 8.7ZM6.94444 23.2C5.83938 23.2 4.77957 23.6583 3.99817 24.4741C3.21676 25.2899 2.77778 26.3963 2.77778 27.55C2.77778 27.9346 2.63145 28.3034 2.37098 28.5753C2.11051 28.8472 1.75725 29 1.38889 29C1.02053 29 0.667263 28.8472 0.406796 28.5753C0.146329 28.3034 0 27.9346 0 27.55C0 25.6272 0.731645 23.7831 2.03398 22.4235C3.33632 21.0638 5.10266 20.3 6.94444 20.3H18.0556C19.8973 20.3 21.6637 21.0638 22.966 22.4235C24.2684 23.7831 25 25.6272 25 27.55C25 27.9346 24.8537 28.3034 24.5932 28.5753C24.3327 28.8472 23.9795 29 23.6111 29C23.2428 29 22.8895 28.8472 22.629 28.5753C22.3685 28.3034 22.2222 27.9346 22.2222 27.55C22.2222 26.3963 21.7832 25.2899 21.0018 24.4741C20.2204 23.6583 19.1606 23.2 18.0556 23.2H6.94444Z" fill="#0D0D0D"/>
</svg>
