<svg width="17" height="13" viewBox="0 0 17 13" fill="none" xmlns="http://www.w3.org/2000/svg">
<path d="M13.0286 5.95829H8.91429V2.70829C8.91429 2.56463 8.84204 2.42686 8.71345 2.32528C8.58485 2.22369 8.41044 2.16663 8.22857 2.16663C8.04671 2.16663 7.8723 2.22369 7.7437 2.32528C7.6151 2.42686 7.54286 2.56463 7.54286 2.70829V5.95829H3.42857C3.24671 5.95829 3.0723 6.01536 2.9437 6.11694C2.8151 6.21853 2.74286 6.3563 2.74286 6.49996C2.74286 6.64362 2.8151 6.78139 2.9437 6.88298C3.0723 6.98456 3.24671 7.04163 3.42857 7.04163H7.54286V10.2916C7.54286 10.4353 7.6151 10.5731 7.7437 10.6746C7.8723 10.7762 8.04671 10.8333 8.22857 10.8333C8.41044 10.8333 8.58485 10.7762 8.71345 10.6746C8.84204 10.5731 8.91429 10.4353 8.91429 10.2916V7.04163H13.0286C13.2104 7.04163 13.3848 6.98456 13.5134 6.88298C13.642 6.78139 13.7143 6.64362 13.7143 6.49996C13.7143 6.3563 13.642 6.21853 13.5134 6.11694C13.3848 6.01536 13.2104 5.95829 13.0286 5.95829Z" fill="#231F20"/>
</svg>
